<?xml version="1.0"?>
<svg xmlns="http://www.w3.org/2000/svg" id="Layer_1" data-name="Layer 1" viewBox="0 0 512 512" width="512" height="512"><title>Rails</title><rect x="365" y="383.42" width="56.04" height="54.49" style="fill:#fedb41"/><rect x="365" y="279.62" width="56.04" height="54.49" style="fill:#fedb41"/><rect x="365" y="175.81" width="56.04" height="54.5" style="fill:#fedb41"/><rect x="365" y="72.01" width="56.04" height="54.49" style="fill:#fedb41"/><rect x="147" y="383.42" width="218" height="54.49" style="fill:#00acea"/><rect x="147" y="279.62" width="218" height="54.49" style="fill:#00acea"/><rect x="147" y="175.81" width="218" height="54.5" style="fill:#00acea"/><rect x="147" y="72.01" width="218" height="54.49" style="fill:#00acea"/><rect x="90.96" y="383.42" width="56.04" height="54.49" style="fill:#fedb41"/><rect x="90.96" y="279.62" width="56.04" height="54.49" style="fill:#fedb41"/><rect x="90.96" y="175.81" width="56.04" height="54.5" style="fill:#fedb41"/><rect x="90.96" y="72.01" width="56.04" height="54.49" style="fill:#fedb41"/><path d="M147,503a8,8,0,0,1-8-8V18a8,8,0,0,1,16,0V495A8,8,0,0,1,147,503Z" style="fill:#f4b844"/><path d="M365,503a8,8,0,0,1-8-8V18a8,8,0,0,1,16,0V495A8,8,0,0,1,365,503Z" style="fill:#f4b844"/></svg>
