<?xml version="1.0"?>
<svg xmlns="http://www.w3.org/2000/svg" id="Layer_1" data-name="Layer 1" viewBox="0 0 512 512" width="512" height="512"><title>Rails</title><path d="M421.039,64H373V18a8,8,0,0,0-16,0V64H155V18a8,8,0,0,0-16,0V64H90.961A7.976,7.976,0,0,0,83,72.011V126.5c0,4.419,3.543,8.5,7.961,8.5H139v33H90.961A7.81,7.81,0,0,0,83,175.813v54.5A7.71,7.71,0,0,0,90.961,238H139v34H90.961A7.648,7.648,0,0,0,83,279.617V334.11A7.873,7.873,0,0,0,90.961,342H139v33H90.961C86.543,375,83,379,83,383.419v54.494A8.041,8.041,0,0,0,90.961,446H139v49a8,8,0,0,0,16,0V446H357v49a8,8,0,0,0,16,0V446h48.039A8.041,8.041,0,0,0,429,437.913V383.419C429,379,425.457,375,421.039,375H373V342h48.039A7.873,7.873,0,0,0,429,334.11V279.617A7.648,7.648,0,0,0,421.039,272H373V238h48.039A7.71,7.71,0,0,0,429,230.308V175.813A7.81,7.81,0,0,0,421.039,168H373V135h48.039c4.418,0,7.961-4.077,7.961-8.5V72.011A7.976,7.976,0,0,0,421.039,64ZM357,80v39H155V80ZM99,119V80h40v39Zm0,103V184h40v38Zm56-38H357v38H155ZM99,326V288h40v38Zm56-38H357v38H155ZM99,430V391h40v39Zm56,0V391H357v39Zm258-39v39H373V391Zm-56-16H155V342H357Zm56-87v38H373V288Zm-56-16H155V238H357Zm56-88v38H373V184Zm-56-16H155V135H357Zm56-49H373V80h40Z"/></svg>
