<svg height="511pt" viewBox="-2 1 511 511.99899" width="511pt" xmlns="http://www.w3.org/2000/svg"><path d="m486.617188 200.960938v112.613281c0 11.535156-9.355469 20.890625-20.894532 20.890625h-186.917968c-11.535157 0-20.890626-9.355469-20.890626-20.890625v-112.613281c0-11.535157 9.355469-20.890626 20.890626-20.890626h186.917968c11.539063 0 20.894532 9.355469 20.894532 20.890626zm0 0" fill="#4588b5"/><path d="m486.617188 200.960938v60.863281c0 11.535156-9.355469 20.890625-20.894532 20.890625h-186.917968c-11.535157 0-20.890626-9.355469-20.890626-20.890625v-60.863281c0-11.535157 9.355469-20.890626 20.890626-20.890626h186.917968c11.539063 0 20.894532 9.355469 20.894532 20.890626zm0 0" fill="#6b9dc6"/><path d="m479.378906 452.226562h-450.378906c-11.539062 0-20.890625-9.351562-20.890625-20.890624v-75.980469c0-11.539063 9.355469-20.890625 20.890625-20.890625h450.378906c11.539063 0 20.890625 9.351562 20.890625 20.890625v75.980469c0 11.539062-9.355469 20.890624-20.890625 20.890624zm0 0" fill="#ffcf47"/><path d="m223.644531 334.464844h13.386719c11.535156 0 20.882812-9.355469 20.882812-20.890625v-197.15625c0-11.539063-9.347656-20.894531-20.882812-20.894531h-185.214844c-11.539062 0-20.894531 9.355468-20.894531 20.894531v197.15625c0 11.535156 9.355469 20.890625 20.894531 20.890625h13.382813" fill="#ef5361"/><path d="m257.890625 115.816406h-175.632813c-11.539062 0-20.894531 9.355469-20.894531 20.894532v197.15625c0 .203124 0 .394531.019531.597656h-9.566406c-11.539062 0-20.894531-9.355469-20.894531-20.890625v-197.15625c0-11.539063 9.355469-20.894531 20.894531-20.894531h185.214844c11.332031 0 20.554688 9.03125 20.859375 20.292968zm0 0" fill="#dc4250"/><path d="m291.175781 28.503906v46.128906c0 11.535157-9.355469 20.890626-20.894531 20.890626h-241.277344c-11.546875 0-20.890625-9.355469-20.890625-20.890626v-46.128906c0-11.539062 9.34375-20.894531 20.890625-20.894531h241.277344c11.539062 0 20.894531 9.355469 20.894531 20.894531zm0 0" fill="#f7bc31"/><path d="m291.175781 28.503906v46.128906c0 11.535157-9.355469 20.890626-20.894531 20.890626h-196.628906c-11.546875 0-20.894532-9.355469-20.894532-20.890626v-46.128906c0-11.539062 9.347657-20.894531 20.894532-20.894531h196.628906c11.539062 0 20.894531 9.355469 20.894531 20.894531zm0 0" fill="#ffcf47"/><path d="m247.851562 400.960938c0 57.121093-46.308593 103.429687-103.429687 103.429687-57.125 0-103.433594-46.308594-103.433594-103.429687 0-57.125 46.308594-103.433594 103.433594-103.433594 57.121094 0 103.429687 46.308594 103.429687 103.433594zm0 0" fill="#4f5866"/><path d="m464.59375 434.453125c0 38.625-31.3125 69.9375-69.9375 69.9375s-69.9375-31.3125-69.9375-69.9375c0-38.628906 31.3125-69.9375 69.9375-69.9375s69.9375 31.308594 69.9375 69.9375zm0 0" fill="#4f5866"/><path d="m188.582031 400.960938c0 24.386718-19.769531 44.160156-44.160156 44.160156s-44.164063-19.773438-44.164063-44.160156c0-24.390626 19.773438-44.164063 44.164063-44.164063s44.160156 19.773437 44.160156 44.164063zm0 0" fill="#363f4d"/><path d="m450.777344 56.457031v101.269531c0 12.335938-10.003906 22.34375-22.34375 22.34375h-50.898438c-12.339844 0-22.332031-10.007812-22.332031-22.34375v-101.269531c0-12.335937 9.992187-22.332031 22.332031-22.332031h50.898438c12.339844 0 22.34375 9.996094 22.34375 22.332031zm0 0" fill="#3dad52"/><path d="m450.777344 56.457031v101.269531c0 12.335938-10.003906 22.34375-22.34375 22.34375h-12.847656c-12.335938 0-22.332032-10.007812-22.332032-22.34375v-101.269531c0-12.335937 9.996094-22.332031 22.332032-22.332031h12.847656c12.339844 0 22.34375 9.996094 22.34375 22.332031zm0 0" fill="#4dc168"/><path d="m200.851562 135.929688h-112.867187c-9.019531 0-16.332031 7.3125-16.332031 16.332031v52.566406c0 9.019531 7.3125 16.332031 16.332031 16.332031h112.863281c9.019532 0 16.332032-7.3125 16.332032-16.332031v-52.566406c0-9.019531-7.308594-16.332031-16.328126-16.332031zm0 0" fill="#dae6ed"/><path d="m489.78125 328.828125c2.808594-4.414063 4.445312-9.644531 4.445312-15.253906v-112.617188c0-15.714843-12.789062-28.5-28.5-28.5h-11.230468c2.472656-4.351562 3.890625-9.378906 3.890625-14.726562v-101.269531c0-16.511719-13.4375-29.949219-29.949219-29.949219h-50.902344c-16.511718 0-29.945312 13.4375-29.945312 29.949219v101.269531c0 5.351562 1.417968 10.375 3.886718 14.726562h-72.667968c-4.796875 0-9.316406 1.195313-13.285156 3.296875v-59.335937c0-4.792969-1.195313-9.3125-3.296876-13.28125h8.054688c15.714844 0 28.5-12.785157 28.5-28.5v-46.136719c0-15.714844-12.785156-28.5-28.5-28.5h-241.28125c-15.714844 0-28.5 12.785156-28.5 28.5v46.132812c0 14.929688 11.535156 27.203126 26.160156 28.398438-2.132812 3.996094-3.347656 8.550781-3.347656 13.386719v52.996093c0 4.203126 3.40625 7.609376 7.609375 7.609376 4.207031 0 7.613281-3.40625 7.613281-7.609376v-52.996093c0-7.316407 5.941406-13.265625 13.25-13.28125h185.273438c7.304687.015625 13.242187 5.964843 13.242187 13.28125v197.15625c0 7.324219-5.953125 13.28125-13.273437 13.28125h-9.984375c-20.34375-22.65625-49.847657-36.9375-82.621094-36.9375-32.777344 0-62.277344 14.28125-82.621094 36.9375h-9.984375c-7.324218 0-13.28125-5.957031-13.28125-13.28125v-113.71875c0-4.203125-3.40625-7.609375-7.609375-7.609375-4.207031 0-7.613281 3.40625-7.613281 7.609375v113.71875c0 4.835937 1.214844 9.390625 3.351562 13.386719-14.625 1.195312-26.160156 13.472656-26.160156 28.398437v75.980469c0 15.710937 12.785156 28.492187 28.503906 28.492187h21.308594c19.65625 31.308594 54.488282 52.167969 94.105469 52.167969s74.449219-20.859375 94.105469-52.167969h82.867187c10.539063 30.328125 39.390625 52.167969 73.261719 52.167969s62.722656-21.839844 73.261719-52.167969h11.464843c15.714844 0 28.503907-12.78125 28.503907-28.492187v-75.980469c-.003907-12.046875-7.519531-22.367187-18.105469-26.53125zm-474.0625-254.195313v-46.132812c0-7.320312 5.957031-13.28125 13.28125-13.28125h241.28125c7.324219 0 13.28125 5.960938 13.28125 13.28125v46.132812c0 7.324219-5.957031 13.28125-13.28125 13.28125h-241.28125c-7.324219 0-13.28125-5.957031-13.28125-13.28125zm347.089844 83.097657v-101.269531c0-8.121094 6.609375-14.726563 14.726562-14.726563h50.902344c8.121094 0 14.726562 6.605469 14.726562 14.726563v101.269531c0 8.121093-6.605468 14.726562-14.726562 14.726562h-50.902344c-8.117187 0-14.726562-6.609375-14.726562-14.726562zm-333.804688 286.882812c-7.324218 0-13.28125-5.957031-13.28125-13.273437v-75.980469c0-7.324219 5.957032-13.285156 13.28125-13.285156h21.316406c-10.726562 17.082031-16.9375 37.269531-16.9375 58.882812 0 15.492188 3.191407 30.246094 8.945313 43.65625zm115.417969 52.167969c-52.835937 0-95.820313-42.988281-95.820313-95.820312 0-52.835938 42.984376-95.820313 95.820313-95.820313s95.820313 42.984375 95.820313 95.820313c0 52.832031-42.988282 95.820312-95.820313 95.820312zm250.234375 0c-34.367188 0-62.328125-27.960938-62.328125-62.328125s27.960937-62.328125 62.328125-62.328125 62.328125 27.960938 62.328125 62.328125-27.960937 62.328125-62.328125 62.328125zm98.007812-65.441406c0 7.320312-5.957031 13.273437-13.28125 13.273437h-7.867187c.4375-3.328125.6875-6.714843.6875-10.160156 0-42.761719-34.789063-77.546875-77.546875-77.546875-42.761719 0-77.550781 34.785156-77.550781 77.546875 0 3.445313.25 6.832031.6875 10.160156h-71.277344c5.753906-13.40625 8.945313-28.164062 8.945313-43.652343 0-21.617188-6.214844-41.804688-16.941407-58.882813h165.867188c4.203125 0 7.609375-3.410156 7.609375-7.613281s-3.40625-7.609375-7.609375-7.609375h-125.539063c-.011718 0-.023437 0-.039062 0-7.324219 0-13.28125-5.960938-13.28125-13.28125v-112.617188c0-7.324219 5.957031-13.28125 13.28125-13.28125h186.917968c7.320313 0 13.277344 5.960938 13.277344 13.28125v112.617188c0 7.320312-5.957031 13.277343-13.277344 13.277343-.015624 0-.027343.003907-.042968.003907h-30.855469c-4.203125 0-7.613281 3.40625-7.613281 7.609375s3.410156 7.609375 7.613281 7.609375h44.550781c7.324219 0 13.285156 5.960937 13.285156 13.285156zm0 0"/><path d="m144.421875 349.183594c-28.550781 0-51.773437 23.226562-51.773437 51.773437 0 28.550781 23.226562 51.773438 51.773437 51.773438s51.773437-23.222657 51.773437-51.773438c0-28.546875-23.226562-51.773437-51.773437-51.773437zm0 88.328125c-20.15625 0-36.554687-16.398438-36.554687-36.550781 0-20.15625 16.398437-36.554688 36.554687-36.554688s36.554687 16.398438 36.554687 36.554688c0 20.152343-16.398437 36.550781-36.554687 36.550781zm0 0"/><path d="m87.984375 228.769531h112.867187c13.199219 0 23.941407-10.738281 23.941407-23.941406v-52.566406c0-13.203125-10.742188-23.941407-23.941407-23.941407h-112.867187c-13.199219 0-23.941406 10.738282-23.941406 23.941407v52.566406c0 13.203125 10.742187 23.941406 23.941406 23.941406zm-8.71875-76.507812c0-4.808594 3.910156-8.722657 8.71875-8.722657h112.867187c4.808594 0 8.71875 3.910157 8.71875 8.722657v52.566406c0 4.808594-3.910156 8.722656-8.71875 8.722656h-112.867187c-4.808594 0-8.71875-3.914062-8.71875-8.722656zm0 0"/></svg>