<?xml version="1.0" encoding="iso-8859-1"?>
<!-- Generator: Adobe Illustrator 19.0.0, SVG Export Plug-In . SVG Version: 6.00 Build 0)  -->
<svg xmlns="http://www.w3.org/2000/svg" xmlns:xlink="http://www.w3.org/1999/xlink" version="1.1" id="Layer_1" x="0px" y="0px" viewBox="0 0 512.025 512.025" style="enable-background:new 0 0 512.025 512.025;" xml:space="preserve" width="512" height="512">
<g>
	<path style="fill:#DBDBDB;" d="M305.475,133.533l-31.421-47.846c-4.548-6.924-13.847-8.851-20.772-4.304   c-6.925,4.548-8.852,13.848-4.304,20.772l31.421,47.846c2.881,4.387,7.668,6.768,12.552,6.768c2.825,0,5.682-0.798,8.22-2.464   C308.095,149.758,310.022,140.458,305.475,133.533z"/>
	<path style="fill:#FFDD33;" d="M287.219,74.148h-72.736c-8.284,0-15,6.716-15,15s6.716,15,15,15h72.736c8.284,0,15-6.716,15-15   S295.503,74.148,287.219,74.148z"/>
	<path style="fill:#FF9D09;" d="M287.219,74.148h-33.938v30h33.938c8.284,0,15-6.716,15-15S295.503,74.148,287.219,74.148z"/>
	<g>
		<path style="fill:#DBDBDB;" d="M496.927,407.877h-77.266l-18.949-23.455h-38.567l18.949,23.455h-40.538l-18.949-23.455h-38.567    l18.949,23.455h-40.537l-18.949-23.455h-38.567l18.949,23.455h-40.538l-18.949-23.455h-38.567l18.949,23.455h-40.537    l-18.949-23.455H48.157c-0.832,0-1.659-0.021-2.481-0.063l19,23.518H15c-8.284,0-15,6.716-15,15s6.716,15,15,15h481.927    c8.284,0,15-6.716,15-15S505.211,407.877,496.927,407.877z"/>
		<path style="fill:#B3B3B3;" d="M496.927,407.877h-77.266l-18.949-23.455h-38.567l18.949,23.455h-40.538l-18.949-23.455h-38.567    l18.949,23.455h-40.537L256,401.128v36.749h240.927c8.284,0,15-6.716,15-15S505.211,407.877,496.927,407.877z"/>
		<g>
			<path style="fill:#0A71B8;" d="M428.249,385.422H48.157C21.603,385.422,0,363.818,0,337.265V180.38     c0-26.554,21.603-48.157,48.157-48.157h353.655c18.023,0,35.214,5.658,49.714,16.362c14.5,10.705,24.97,25.467,30.278,42.691     l26.438,85.791c7.907,25.658,3.296,52.764-12.651,74.364C479.644,373.033,455.099,385.422,428.249,385.422z"/>
			<path style="fill:#0A4A75;" d="M508.241,277.067l-26.438-85.791c-5.308-17.225-15.778-31.986-30.278-42.691     c-14.5-10.704-31.691-16.362-49.714-16.362H256v253.199h172.249c26.85,0,51.395-12.389,67.341-33.99     C511.537,329.831,516.148,302.726,508.241,277.067z"/>
			<g>
				<path style="fill:#67C7F0;" d="M381.331,253.803h119.741l-19.268-62.527c-5.308-17.225-15.778-31.986-30.278-42.691      c-14.5-10.704-31.691-16.362-49.714-16.362H344.67v84.919C344.67,237.389,361.084,253.803,381.331,253.803z"/>
			</g>
		</g>
		<g>
			<path style="fill:#FF9D09;" d="M483.651,320.273h-9.004c-8.284,0-15-6.716-15-15s6.716-15,15-15h9.004c8.284,0,15,6.716,15,15     S491.935,320.273,483.651,320.273z"/>
		</g>
		<g>
			<path style="fill:#8CECFF;" d="M142.957,268.803H66.122c-8.853,0-16.055-7.202-16.055-16.054v-54.597     c0-8.853,7.202-16.055,16.055-16.055h76.835c8.853,0,16.054,7.202,16.054,16.055v54.597     C159.011,261.601,151.81,268.803,142.957,268.803z"/>
		</g>
		<g>
			<path style="fill:#8CECFF;" d="M277.822,268.803h-76.835c-8.853,0-16.055-7.202-16.055-16.054v-54.597     c0-8.853,7.202-16.055,16.055-16.055h76.835c8.853,0,16.055,7.202,16.055,16.055v54.597     C293.876,261.601,286.674,268.803,277.822,268.803z"/>
		</g>
		<g>
			<path style="fill:#FFDD33;" d="M422.191,320.273H15c-8.284,0-15-6.716-15-15s6.716-15,15-15h407.191c8.284,0,15,6.716,15,15     S430.475,320.273,422.191,320.273z"/>
		</g>
		<path style="fill:#FF9D09;" d="M422.191,290.273H256v30h166.191c8.284,0,15-6.716,15-15S430.475,290.273,422.191,290.273z"/>
		<path style="fill:#67C7F0;" d="M277.822,182.098H256v86.705h21.822c8.853,0,16.055-7.202,16.055-16.054v-54.597    C293.876,189.3,286.674,182.098,277.822,182.098z"/>
	</g>
</g>















</svg>
